<svg viewBox="0 0 100 100" xmlns="http://www.w3.org/2000/svg">
  <defs>
    <!-- Main gradient for the icon -->
    <linearGradient id="primaryGradient" x1="0%" y1="0%" x2="100%" y2="100%">
      <stop offset="0%" style="stop-color:#9333EA;stop-opacity:1" />
      <stop offset="30%" style="stop-color:#7C3AED;stop-opacity:1" />
      <stop offset="70%" style="stop-color:#6D28D9;stop-opacity:1" />
      <stop offset="100%" style="stop-color:#5B21B6;stop-opacity:1" />
    </linearGradient>
    
    <!-- Secondary gradient for accent elements -->
    <linearGradient id="accentGradient" x1="0%" y1="0%" x2="100%" y2="100%">
      <stop offset="0%" style="stop-color:#9333EA;stop-opacity:1" />
      <stop offset="50%" style="stop-color:#7C3AED;stop-opacity:1" />
      <stop offset="100%" style="stop-color:#6D28D9;stop-opacity:1" />
    </linearGradient>
    
    <!-- Subtle inner gradient -->
    <radialGradient id="innerGlow" cx="50%" cy="30%" r="70%">
      <stop offset="0%" style="stop-color:#FFFFFF;stop-opacity:0.2" />
      <stop offset="100%" style="stop-color:#FFFFFF;stop-opacity:0" />
    </radialGradient>
    
    <!-- Professional glow filter -->
    <filter id="professionalGlow" x="-50%" y="-50%" width="200%" height="200%">
      <feGaussianBlur stdDeviation="2" result="coloredBlur"/>
      <feMerge> 
        <feMergeNode in="coloredBlur"/>
        <feMergeNode in="SourceGraphic"/>
      </feMerge>
    </filter>
    
    <!-- Shadow filter -->
    <filter id="dropShadow" x="-20%" y="-20%" width="140%" height="140%">
      <feDropShadow dx="0" dy="3" stdDeviation="4" flood-color="#3B0764" flood-opacity="0.4"/>
    </filter>
  </defs>
  
  <!-- Main circular container with subtle shadow -->
  <circle cx="50" cy="50" r="45" fill="url(#primaryGradient)" filter="url(#dropShadow)"/>
  
  <!-- Inner glow overlay for premium feel -->
  <circle cx="50" cy="50" r="45" fill="url(#innerGlow)"/>
  
  <!-- Central neural network hub -->
  <circle cx="50" cy="50" r="8" fill="#FFFFFF" opacity="0.95" filter="url(#professionalGlow)"/>
  <circle cx="50" cy="50" r="5" fill="url(#accentGradient)" opacity="0.9"/>
  
  <!-- Primary nodes (larger, more prominent) -->
  <circle cx="30" cy="30" r="4" fill="#FFFFFF" opacity="0.95" filter="url(#professionalGlow)"/>
  <circle cx="70" cy="30" r="4" fill="#FFFFFF" opacity="0.95" filter="url(#professionalGlow)"/>
  <circle cx="30" cy="70" r="4" fill="#FFFFFF" opacity="0.95" filter="url(#professionalGlow)"/>
  <circle cx="70" cy="70" r="4" fill="#FFFFFF" opacity="0.95" filter="url(#professionalGlow)"/>
  
  <!-- Secondary nodes (medium size) -->
  <circle cx="50" cy="25" r="3" fill="#FFFFFF" opacity="0.8"/>
  <circle cx="75" cy="50" r="3" fill="#FFFFFF" opacity="0.8"/>
  <circle cx="50" cy="75" r="3" fill="#FFFFFF" opacity="0.8"/>
  <circle cx="25" cy="50" r="3" fill="#FFFFFF" opacity="0.8"/>
  
  <!-- Tertiary nodes (smaller, subtle) -->
  <circle cx="38" cy="20" r="2" fill="url(#accentGradient)" opacity="0.6"/>
  <circle cx="62" cy="20" r="2" fill="url(#accentGradient)" opacity="0.6"/>
  <circle cx="80" cy="38" r="2" fill="url(#accentGradient)" opacity="0.6"/>
  <circle cx="80" cy="62" r="2" fill="url(#accentGradient)" opacity="0.6"/>
  <circle cx="62" cy="80" r="2" fill="url(#accentGradient)" opacity="0.6"/>
  <circle cx="38" cy="80" r="2" fill="url(#accentGradient)" opacity="0.6"/>
  <circle cx="20" cy="62" r="2" fill="url(#accentGradient)" opacity="0.6"/>
  <circle cx="20" cy="38" r="2" fill="url(#accentGradient)" opacity="0.6"/>
  
  <!-- Connection lines (elegant curves) -->
  <!-- Central hub to primary nodes -->
  <path d="M50 50 Q40 40, 30 30" stroke="#FFFFFF" stroke-width="1.5" fill="none" opacity="0.6"/>
  <path d="M50 50 Q60 40, 70 30" stroke="#FFFFFF" stroke-width="1.5" fill="none" opacity="0.6"/>
  <path d="M50 50 Q40 60, 30 70" stroke="#FFFFFF" stroke-width="1.5" fill="none" opacity="0.6"/>
  <path d="M50 50 Q60 60, 70 70" stroke="#FFFFFF" stroke-width="1.5" fill="none" opacity="0.6"/>
  
  <!-- Central hub to secondary nodes -->
  <path d="M50 50 L50 25" stroke="#FFFFFF" stroke-width="1" fill="none" opacity="0.5"/>
  <path d="M50 50 L75 50" stroke="#FFFFFF" stroke-width="1" fill="none" opacity="0.5"/>
  <path d="M50 50 L50 75" stroke="#FFFFFF" stroke-width="1" fill="none" opacity="0.5"/>
  <path d="M50 50 L25 50" stroke="#FFFFFF" stroke-width="1" fill="none" opacity="0.5"/>
  
  <!-- Interconnected network lines (subtle) -->
  <path d="M30 30 Q42 25, 50 25" stroke="#FFFFFF" stroke-width="0.8" fill="none" opacity="0.4"/>
  <path d="M70 30 Q58 25, 50 25" stroke="#FFFFFF" stroke-width="0.8" fill="none" opacity="0.4"/>
  <path d="M75 50 Q80 42, 80 38" stroke="#FFFFFF" stroke-width="0.8" fill="none" opacity="0.4"/>
  <path d="M75 50 Q80 58, 80 62" stroke="#FFFFFF" stroke-width="0.8" fill="none" opacity="0.4"/>
  
  <!-- Voice wave representation (subtle arc) -->
  <path d="M35 40 Q50 35, 65 40" stroke="#FFFFFF" stroke-width="1" fill="none" opacity="0.3"/>
  <path d="M40 45 Q50 42, 60 45" stroke="#FFFFFF" stroke-width="0.8" fill="none" opacity="0.4"/>
  <path d="M42 50 Q50 48, 58 50" stroke="#FFFFFF" stroke-width="0.6" fill="none" opacity="0.2"/>
</svg>